<mxfile host="app.diagrams.net" modified="2022-02-15T10:20:17.527Z" agent="5.0 (Windows NT 10.0; Win64; x64) AppleWebKit/537.36 (KHTML, like Gecko) Chrome/95.0.4638.69 Safari/537.36" etag="qz2FVdKOPcvw2kFN2U9s" version="16.5.2" type="github">
  <diagram id="KqT8hlWPDfMBo95Y4FzN" name="Page-1">
    <mxGraphModel dx="1422" dy="795" grid="1" gridSize="10" guides="1" tooltips="1" connect="1" arrows="1" fold="1" page="1" pageScale="1" pageWidth="827" pageHeight="1169" math="0" shadow="0">
      <root>
        <mxCell id="0" />
        <mxCell id="1" parent="0" />
        <mxCell id="ZzSdkyrplBqntAY0BgAB-3" value="" style="edgeStyle=orthogonalEdgeStyle;rounded=0;orthogonalLoop=1;jettySize=auto;html=1;" edge="1" parent="1" source="ZzSdkyrplBqntAY0BgAB-1" target="ZzSdkyrplBqntAY0BgAB-2">
          <mxGeometry relative="1" as="geometry" />
        </mxCell>
        <mxCell id="ZzSdkyrplBqntAY0BgAB-1" value="拖拽开始" style="rounded=0;whiteSpace=wrap;html=1;" vertex="1" parent="1">
          <mxGeometry x="80" y="80" width="120" height="60" as="geometry" />
        </mxCell>
        <mxCell id="ZzSdkyrplBqntAY0BgAB-5" value="" style="edgeStyle=orthogonalEdgeStyle;rounded=0;orthogonalLoop=1;jettySize=auto;html=1;entryX=0.5;entryY=0;entryDx=0;entryDy=0;" edge="1" parent="1" source="ZzSdkyrplBqntAY0BgAB-2" target="ZzSdkyrplBqntAY0BgAB-18">
          <mxGeometry relative="1" as="geometry">
            <mxPoint x="140" y="360" as="targetPoint" />
          </mxGeometry>
        </mxCell>
        <mxCell id="ZzSdkyrplBqntAY0BgAB-2" value="拖拽完成" style="rounded=0;whiteSpace=wrap;html=1;" vertex="1" parent="1">
          <mxGeometry x="80" y="220" width="120" height="60" as="geometry" />
        </mxCell>
        <mxCell id="ZzSdkyrplBqntAY0BgAB-7" value="" style="edgeStyle=orthogonalEdgeStyle;rounded=0;orthogonalLoop=1;jettySize=auto;html=1;exitX=0.5;exitY=1;exitDx=0;exitDy=0;" edge="1" parent="1" source="ZzSdkyrplBqntAY0BgAB-18" target="ZzSdkyrplBqntAY0BgAB-6">
          <mxGeometry relative="1" as="geometry">
            <mxPoint x="140" y="420" as="sourcePoint" />
          </mxGeometry>
        </mxCell>
        <mxCell id="ZzSdkyrplBqntAY0BgAB-11" value="" style="edgeStyle=orthogonalEdgeStyle;rounded=0;orthogonalLoop=1;jettySize=auto;html=1;entryX=0;entryY=0.5;entryDx=0;entryDy=0;" edge="1" parent="1" source="ZzSdkyrplBqntAY0BgAB-6" target="ZzSdkyrplBqntAY0BgAB-25">
          <mxGeometry relative="1" as="geometry" />
        </mxCell>
        <mxCell id="ZzSdkyrplBqntAY0BgAB-6" value="图钉吸附到推荐点上，函数getincarFunction" style="rounded=0;whiteSpace=wrap;html=1;" vertex="1" parent="1">
          <mxGeometry x="80" y="500" width="120" height="60" as="geometry" />
        </mxCell>
        <mxCell id="ZzSdkyrplBqntAY0BgAB-8" value="生成气泡，函数picklocation" style="rounded=0;whiteSpace=wrap;html=1;" vertex="1" parent="1">
          <mxGeometry x="80" y="640" width="120" height="60" as="geometry" />
        </mxCell>
        <mxCell id="ZzSdkyrplBqntAY0BgAB-15" value="" style="edgeStyle=orthogonalEdgeStyle;rounded=0;orthogonalLoop=1;jettySize=auto;html=1;exitX=0;exitY=0.5;exitDx=0;exitDy=0;" edge="1" parent="1" source="ZzSdkyrplBqntAY0BgAB-26" target="ZzSdkyrplBqntAY0BgAB-8">
          <mxGeometry relative="1" as="geometry">
            <mxPoint x="310" y="670" as="sourcePoint" />
          </mxGeometry>
        </mxCell>
        <mxCell id="ZzSdkyrplBqntAY0BgAB-22" value="" style="edgeStyle=orthogonalEdgeStyle;rounded=0;orthogonalLoop=1;jettySize=auto;html=1;" edge="1" parent="1" source="ZzSdkyrplBqntAY0BgAB-18" target="ZzSdkyrplBqntAY0BgAB-21">
          <mxGeometry relative="1" as="geometry" />
        </mxCell>
        <mxCell id="ZzSdkyrplBqntAY0BgAB-18" value="&lt;span&gt;地图定位，查找生成推荐点。函数boardingPoint&lt;/span&gt;" style="rhombus;whiteSpace=wrap;html=1;" vertex="1" parent="1">
          <mxGeometry x="100" y="350" width="80" height="80" as="geometry" />
        </mxCell>
        <mxCell id="ZzSdkyrplBqntAY0BgAB-20" value="有推荐点" style="text;html=1;strokeColor=none;fillColor=none;align=center;verticalAlign=middle;whiteSpace=wrap;rounded=0;" vertex="1" parent="1">
          <mxGeometry x="140" y="440" width="60" height="30" as="geometry" />
        </mxCell>
        <mxCell id="ZzSdkyrplBqntAY0BgAB-21" value="" style="whiteSpace=wrap;html=1;" vertex="1" parent="1">
          <mxGeometry x="310" y="360" width="120" height="60" as="geometry" />
        </mxCell>
        <mxCell id="ZzSdkyrplBqntAY0BgAB-23" value="没有推荐点" style="text;html=1;align=center;verticalAlign=middle;resizable=0;points=[];autosize=1;strokeColor=none;fillColor=none;" vertex="1" parent="1">
          <mxGeometry x="200" y="370" width="80" height="20" as="geometry" />
        </mxCell>
        <mxCell id="ZzSdkyrplBqntAY0BgAB-24" value="当前地址&lt;br&gt;&lt;div&gt;搜索栏过来的&lt;/div&gt;&lt;div&gt;吸附过来的&lt;/div&gt;" style="text;html=1;strokeColor=none;fillColor=none;align=center;verticalAlign=middle;whiteSpace=wrap;rounded=0;" vertex="1" parent="1">
          <mxGeometry x="340" y="620" width="60" height="30" as="geometry" />
        </mxCell>
        <mxCell id="ZzSdkyrplBqntAY0BgAB-27" value="" style="edgeStyle=orthogonalEdgeStyle;rounded=0;orthogonalLoop=1;jettySize=auto;html=1;" edge="1" parent="1" source="ZzSdkyrplBqntAY0BgAB-25" target="ZzSdkyrplBqntAY0BgAB-26">
          <mxGeometry relative="1" as="geometry" />
        </mxCell>
        <mxCell id="ZzSdkyrplBqntAY0BgAB-25" value="设置中心点，&lt;br&gt;函数setCenter" style="rounded=0;whiteSpace=wrap;html=1;" vertex="1" parent="1">
          <mxGeometry x="520" y="500" width="120" height="60" as="geometry" />
        </mxCell>
        <mxCell id="ZzSdkyrplBqntAY0BgAB-30" value="" style="edgeStyle=orthogonalEdgeStyle;rounded=0;orthogonalLoop=1;jettySize=auto;html=1;" edge="1" parent="1" source="ZzSdkyrplBqntAY0BgAB-26" target="ZzSdkyrplBqntAY0BgAB-29">
          <mxGeometry relative="1" as="geometry" />
        </mxCell>
        <mxCell id="ZzSdkyrplBqntAY0BgAB-26" value="拖拽选址（图钉）移动，函数positionPicker" style="rounded=0;whiteSpace=wrap;html=1;" vertex="1" parent="1">
          <mxGeometry x="520" y="640" width="120" height="60" as="geometry" />
        </mxCell>
        <mxCell id="ZzSdkyrplBqntAY0BgAB-32" style="edgeStyle=orthogonalEdgeStyle;rounded=0;orthogonalLoop=1;jettySize=auto;html=1;entryX=0;entryY=0.5;entryDx=0;entryDy=0;" edge="1" parent="1" source="ZzSdkyrplBqntAY0BgAB-29" target="ZzSdkyrplBqntAY0BgAB-18">
          <mxGeometry relative="1" as="geometry">
            <Array as="points">
              <mxPoint x="60" y="830" />
              <mxPoint x="60" y="390" />
            </Array>
          </mxGeometry>
        </mxCell>
        <mxCell id="ZzSdkyrplBqntAY0BgAB-29" value="更新到上车点updateIncar" style="rounded=0;whiteSpace=wrap;html=1;" vertex="1" parent="1">
          <mxGeometry x="520" y="800" width="120" height="60" as="geometry" />
        </mxCell>
        <mxCell id="ZzSdkyrplBqntAY0BgAB-31" value="拖动过来的" style="text;html=1;strokeColor=none;fillColor=none;align=center;verticalAlign=middle;whiteSpace=wrap;rounded=0;" vertex="1" parent="1">
          <mxGeometry x="520" y="720" width="60" height="30" as="geometry" />
        </mxCell>
      </root>
    </mxGraphModel>
  </diagram>
</mxfile>
